<svg xmlns="http://www.w3.org/2000/svg" viewBox="0 0 40 41" width="4.5em" height="4.5em" fill="#7952b3" fill-rule="evenodd" aria-hidden="true" focusable="false" role="img" class="d-block mx-auto mb-2" data-v-792738cd=""><title data-v-792738cd="">Open Collective logo</title> <path fill-opacity=".4" d="M32.8 21c0 2.4-.8 4.9-2 6.9l5.1 5.1c2.5-3.4 4.1-7.6 4.1-12 0-4.6-1.6-8.8-4-12.2L30.7 14c1.2 2 2 4.3 2 7z" data-v-792738cd=""></path> <path d="M20 33.7a12.8 12.8 0 0 1 0-25.6c2.6 0 5 .7 7 2.1L32 5a20 20 0 1 0 .1 31.9l-5-5.2a13 13 0 0 1-7 2z" data-v-792738cd=""></path></svg>