<svg xmlns="http://www.w3.org/2000/svg" viewBox="0 0 32 32" width="16" height="16" focusable="false" role="img" class="navbar-nav-svg" data-v-5a6ee65f=""><title data-v-5a6ee65f="">Discord</title> <g fill="#cbbde2" data-v-5a6ee65f=""><path d="M13.1,13.424a1.782,1.782,0,0,0,0,3.552A1.7,1.7,0,0,0,14.736,15.2,1.694,1.694,0,0,0,13.1,13.424Zm5.84,0A1.782,1.782,0,1,0,20.576,15.2,1.7,1.7,0,0,0,18.944,13.424Z" data-v-5a6ee65f=""></path> <path d="M26.72,0H5.28A3.288,3.288,0,0,0,2,3.3V24.928a3.288,3.288,0,0,0,3.28,3.3H23.424l-.848-2.96,2.048,1.9L26.56,28.96,30,32V3.3A3.288,3.288,0,0,0,26.72,0ZM20.544,20.9s-.576-.688-1.056-1.3a5.049,5.049,0,0,0,2.9-1.9,9.156,9.156,0,0,1-1.84.944,10.531,10.531,0,0,1-2.32.688,11.208,11.208,0,0,1-4.144-.016,13.431,13.431,0,0,1-2.352-.688A9.6,9.6,0,0,1,9.9,17.68a4.976,4.976,0,0,0,2.8,1.888c-.48.608-1.072,1.328-1.072,1.328a5.8,5.8,0,0,1-4.88-2.432,21.426,21.426,0,0,1,2.3-9.328,7.912,7.912,0,0,1,4.5-1.68l.16.192A10.794,10.794,0,0,0,9.5,9.744s.352-.192.944-.464A12.015,12.015,0,0,1,14.08,8.272a1.576,1.576,0,0,1,.272-.032,13.538,13.538,0,0,1,3.232-.032A13.043,13.043,0,0,1,22.4,9.744a10.648,10.648,0,0,0-3.984-2.032l.224-.256a7.912,7.912,0,0,1,4.5,1.68,21.426,21.426,0,0,1,2.3,9.328A5.849,5.849,0,0,1,20.544,20.9Z" data-v-5a6ee65f=""></path></g></svg>